<svg version="1" xmlns="http://www.w3.org/2000/svg" width="1333.333" height="1333.333" viewBox="0 0 1000.000000 1000.000000"><path d="M310.5 95.1c-40 6.6-65.9 35.6-76 84.9-3.2 15.4-3.9 24.1-4 45.5 0 23.3 1.9 47.2 4.9 62 .2 1.1.7 4 1 6.5.9 5.9 4.3 22.3 6.7 32.8 2.2 9.7 2.3 11.2.7 11.2-3.8 0-48 15.3-59.6 20.6-2.9 1.3-5.5 2.4-5.7 2.4-.3 0-5.8 2.5-12.2 5.6-77.2 37-113 85.2-101.4 136.6 4.1 18.2 15.4 36.5 32.9 53.6C126 584.3 169.4 607.4 228 626c9.1 2.9 16.8 5.5 17.2 5.7.4.2.3 1.5-.2 2.9-1.8 4.5-8.2 35.5-9.4 45.4-.3 2.5-.8 5.4-1 6.6-.2 1.2-.7 4.5-1.1 7.5-.4 3-.9 6.5-1 7.9-2 14.5-2.7 51.6-1.2 66 4.7 48.1 23.6 82.3 53.6 97.5 6.7 3.3 14.6 6.3 19.1 7.2 9.5 1.8 14 2.2 25.5 1.9 26.9-.7 56-11.1 90.4-32.3 9.7-6 18.9-12.1 20.1-13.3.3-.3 4.1-3.2 8.5-6.4 7-5.2 20.9-16.2 24.1-19.1.6-.6 4.4-4 8.5-7.6 4.1-3.7 9.9-9 12.9-11.8 3-2.8 5.7-5.1 6-5.1.3 0 2.2 1.5 4.1 3.2 13.5 12.6 25.8 23.4 38.3 33.5 5.8 4.7 23.1 17.2 30.2 21.8 30.5 19.9 55.9 30.9 82.9 35.9 7.9 1.4 29.6 1.6 35.8.2 1.5-.3 3.8-.8 5.2-1 3.7-.7 12.6-4.1 19.3-7.5 29-14.6 48.8-50.7 52.9-96.1 1.4-15.8.7-56.9-1.1-66.7-.2-1-.7-4.5-1-7.8-.4-3.3-.9-7.1-1.1-8.5-.3-1.4-.7-4-1-5.8-1.1-7.2-1.7-10.1-3.6-19.7-1.2-5.5-2.3-11.1-2.5-12.5-.3-1.4-1-4.3-1.6-6.5-.6-2.2-1.2-5.4-1.5-7l-.4-3.1 13.8-4.2c33-10.3 62.7-22.8 87.3-36.8 10.7-6 28.3-17.4 30-19.3.3-.3 3.2-2.8 6.5-5.6 45.6-37.7 57-84.5 31-127.4-19.4-32-59.7-60.6-117.5-83.4-16.1-6.4-47-16.7-49.8-16.7-1.7 0-1.9 1.5 3.6-25.5 7.6-36.8 9.7-55.5 9.7-86 0-16.9-.7-28.9-1.9-35-.2-1.1-.7-4.1-1-6.7-1.1-7.8-5.4-23.2-9-32.3-15.4-38.2-45.9-59.3-84.8-58.7-4.3.1-9 .4-10.5.6-1.6.2-4.8.7-7.3 1.1-8.7 1.3-20.6 4.7-32 9.1-10.6 4.2-30.1 13.6-36 17.5-1.4.9-7.9 5.1-14.5 9.4-16.3 10.6-44.5 32.2-52.6 40.4-4.5 4.6-19.3 17.6-19.9 17.6-.4 0-5-3.9-10.1-8.6-5.2-4.7-11.4-10.4-13.9-12.5-2.5-2.1-4.7-4.1-5-4.4-3-3.3-32.5-25.6-42.5-32.1-33.6-22-67.1-35.7-91.9-37.5-14.3-1-16.3-1-26.1.7zm30.7 37.5c28.7 5.4 63.7 24.8 100.9 55.9C455.9 200 473 216 473 217.4c0 .6-2.4 3.6-5.3 6.6-2.8 3.1-7.9 8.7-11.2 12.5-3.3 3.9-6.2 7.2-6.5 7.5-2.4 2.1-25.2 31-37 46.7-13 17.5-14.6 19.3-17.4 19.4-1.7.1-4.2.2-5.6.4-10.3 1-16.2 1.7-18.2 2-1.3.3-4.3.7-6.8.9-9.2 1-27.7 3.7-34 5-1.4.3-4.1.8-6 1-3.7.5-6.3 1-14.5 2.6-2.7.6-5.9 1.2-7 1.4-2.7.5-9.8 1.9-11 2.2-7.2 1.7-10.1 2.2-10.6 1.6-1.2-1.2-6.4-25.5-9.3-42.7-1.4-8.1-3.3-23.6-4.3-34-.8-9-.8-40.7 0-47.5.3-2.5.9-7 1.2-10 .4-3 .9-5.8 1.1-6.1.2-.3.5-1.9.8-3.6 1.1-5.8 5.6-18.2 8.8-24.2 6.1-11.3 14-19.2 23.2-23.4 4.2-1.9 4.6-2.1 10.6-3.5 5.5-1.4 18.8-1.2 27.2.4zm346-.1c8.9 2.1 14.8 5.4 22.4 13 15.8 15.7 22.7 40.2 22.8 80.5 0 18.9-.6 28-3.3 46.5-.6 3.8-1.3 9.2-1.6 11.9-.4 2.8-.8 5.2-1 5.6-.2.3-.6 2.6-1 5-.9 6.8-6.6 31.4-7.4 32.2-.3.4-3.4.1-6.7-.7-3.4-.8-7.3-1.6-8.8-1.9-1.4-.3-3.4-.7-4.4-1-2-.6-28.6-5.3-38.2-6.7-3.6-.5-7.6-1.1-9-1.4-2.2-.3-4.7-.6-16-2.1-1.4-.2-4.9-.6-7.9-1-3-.3-6.2-.7-7.1-.9-.9-.2-5.4-.6-10.1-1-9.4-.7-9.1-.5-16.4-11-2.2-3.2-4.4-6.3-5-6.9-.5-.6-4.4-5.6-8.5-11.1-10.4-13.9-29.2-36.8-41.3-50.4-5.6-6.2-10.6-12-11.2-12.8-.8-1.1.6-2.9 6.1-8.1 46.1-43.5 89.4-70.4 124.7-77.6 8.3-1.7 21.9-1.8 28.9-.1zm-172.5 128c10 11.6 23 27.3 25.3 30.6 1.3 1.9 2.7 3.6 3 3.9.9.9 8 9.8 8 10.2 0 .2-22.9.3-51 .3-28 0-51-.1-51-.3 0-.4 25.5-32.1 29.5-36.7 8.8-10.2 12.5-14.4 16.2-18.4 2.3-2.5 4.3-5.1 4.3-5.6 0-1.1 7.4 6.4 15.7 16zm37.3 83c6.9.4 13.9.8 15.5 1 1.7.2 5.1.3 7.8.4l4.7.1 8.8 13.3c16.5 25.1 25.6 39.9 40.9 67.2 10.6 18.9 30.3 57 30.3 58.8 0 1.7-16.2 33.6-26.8 52.7-21.8 39.5-51.4 86.1-55 86.7-7.5 1.1-53 2.7-78.7 2.6-25.1 0-63.6-1.3-77.7-2.6-2-.2-5.6-5.3-21.5-30.2-27.8-43.9-61.3-105.8-59.7-110.7.9-2.9 19.4-39.2 24.4-47.8 2.1-3.6 5.4-9.7 7.5-13.5 6.7-12.3 24.5-41.5 36.2-59.3 11.2-17 11.4-17.2 15.1-17.3 2-.1 5.3-.3 7.2-.5 1.9-.1 11.6-.6 21.5-.9 9.9-.4 18.1-.8 18.3-1 .5-.5 69.7.3 81.2 1zm-186.8 17.4c-13.5 21.8-27.1 45.4-40.7 70.6-2.1 3.8-4 7.4-4.2 7.8-.7 1.2-2.8-3.8-11.1-25.5-6.8-17.7-17.2-47.3-17.2-48.8 0-.4 1.7-1.2 3.8-1.8 3.5-1 26.1-5.6 32.7-6.6 1.7-.3 7.1-1.2 12-2 5-.8 11-1.8 13.5-2.1 7.1-1 11.5-1.7 11.7-1.9.1 0 1.5-.2 3.1-.2l3-.2-6.6 10.7zm287.3-7.3c18.1 2.8 27 4.3 43.5 7.7l11.5 2.3-.3 2.9c-.8 6.9-26 74.2-27.3 72.8-.4-.5-2-3.3-3.6-6.3-7.8-14.4-11.9-21.8-14-25.5-1.2-2.2-3.2-5.8-4.4-8-3-5.5-18.4-31.2-24.8-41.3l-5.2-8.3 4.3.6c2.4.3 11.5 1.7 20.3 3.1zM271.2 419c5.3 14.3 15.4 39 21.5 52.3 2.9 6.5 5.3 12.3 5.3 12.8 0 .6-3.1 8.1-6.8 16.7-3.8 8.6-9.7 22.9-13.2 31.7-3.4 8.8-6.6 16.9-7.1 18-1.5 3.6-7.7 21.8-11.5 33.2-2.4 7.5-4.1 11.3-5.1 11.3-1.6 0-12.3-3.4-28.8-9-35-12-66.3-27.7-87.8-43.9-51.5-38.8-50.1-79.6 4.1-118.5 18.7-13.4 39.7-24 74.2-37.6 5.3-2.1 34.6-11.6 37.5-12.2 1.8-.3 2.7 1.7 8.1 17.7 3.4 9.9 7.7 22.3 9.6 27.5zM757 377c10.9 3.3 33.2 11.1 38.5 13.5 1.7.7 5.9 2.5 9.5 4 9.5 3.9 30.7 14.7 39.7 20.1 26.5 16.1 43.9 33.6 51.5 51.7 3.6 8.5 4.6 20.9 2.4 29.4-9.3 34.9-58.2 68.9-135.6 94.2-6.9 2.2-13.9 4.3-15.6 4.7l-3.2.6-2.7-8.8c-4.9-15.4-20.2-57-25-67.9-7-15.9-14.5-33.5-14.5-34.2 0-.8 6.2-15.2 12.1-28 1-2.4 1.9-4.6 1.9-4.9 0-.3.6-2 1.4-3.7 4.7-10.4 16.3-41.7 22.7-61.3 2.4-7.3 4.7-13 5.3-12.9.6.2 5.8 1.8 11.6 3.5zM335.3 557c4.4 8 8.8 15.7 9.8 17.2 1.1 1.4 1.9 2.9 1.9 3.2 0 .5 17.7 30 23 38.3 1.9 2.9 1.3 3.3-4 2.3-2.5-.4-6.7-1.1-9.5-1.4-2.7-.3-6.1-.8-7.5-1-1.4-.3-4.1-.7-6-1-16.7-2.5-49.8-9.1-50.8-10-.5-.5 8.6-28.1 13.1-39.6 1.4-3.6 3.9-10.1 5.6-14.5 3.8-10.1 7.4-18.6 8.5-20.3.6-1 1.9.7 4.3 5.5 2 3.7 7.2 13.3 11.6 21.3zM683 535c1.2 3 2.8 6.8 3.5 8.5 6.4 15.2 22.1 60.3 21.2 61.1-.6.6-30.4 6.8-37.4 7.7-2.2.4-5.2.8-6.5 1.1-1.2.3-3.9.8-5.8 1.1-7.4 1.1-24.6 3.6-27.3 4l-2.8.3 1.7-2.6c10.1-15.2 37.7-62.8 45.4-78.3 3.2-6.3 5-9.2 5.5-8.7.2.2 1.3 2.8 2.5 5.8zM304.1 645.4c9.6 2 19.2 3.8 21.4 4.1 2.2.3 6.5 1 9.5 1.5s7.3 1.2 9.5 1.5c2.2.3 5.1.8 6.5 1 1.4.3 4.8.7 7.5 1 2.8.3 6.1.8 7.5 1 1.4.2 5.2.7 8.5 1 3.3.3 7.1.8 8.5 1 1.4.3 5.6.7 9.5 1.1 3.8.3 7 .6 7 .7 1.8 3.9 40.4 54.2 46.7 60.8.7.8 3.5 4.1 6.3 7.4 2.7 3.3 5.2 6.2 5.5 6.5.3.3 4 4.4 8.2 9.1l7.7 8.6-8.6 7.9c-4.7 4.4-9.2 8.4-9.8 9.1-5 4.9-20.2 17.3-31.6 25.8-28 20.9-52.5 34-75.5 40.1-11.7 3.1-28.6 3.8-36.9 1.5-24.5-6.9-39-30.5-43.2-70.6-1.4-13.4-.7-46.5 1.2-60 .5-3.4 1.1-7.7 2-15 .4-2.8 1.5-9.4 2.6-14.8 1-5.3 2.1-11.2 2.4-13 .3-1.7 1-4.8 1.5-6.7.5-1.9 1.1-4.6 1.4-6 .2-1.4.7-3.3 1-4.3l1.1-3.3c.4-1.1 1.2-1.4 2.8-1 1.3.3 10.2 2.1 19.8 4zm416.3 3.8c2.1 9.8 2 9.2 4 18.8 1.4 6.9 2.8 14.7 4 22.5.3 1.6.8 5.7 1.2 9 .3 3.3.8 6.2.9 6.5.9 1.5 1.9 22.2 1.9 37 0 17.5-.8 27-2.9 38-.3 1.4-.7 3.4-.9 4.6-2.8 14.4-11.8 31.8-20.9 40-4.8 4.3-14.7 10.2-14.7 8.8 0-.4-.6-.2-1.2.3-3.6 2.9-20 3.7-31.8 1.6-21.5-3.7-45.4-14.8-73-33.8-11.4-7.9-26-19.2-32.5-25.2-1.1-1-3.6-3.1-5.5-4.7-7.6-6.2-22-20-22-21 0-.6 2.1-3.4 4.6-6.1 8.5-9.3 16.4-18.3 18.6-21.1 1.3-1.6 2.9-3.5 3.6-4.3 5-5.2 42.3-53.5 45.9-59.3.5-1 4.6-1.9 12.3-2.7 6.3-.7 12.6-1.4 14-1.6 1.4-.2 5-.7 8-1 20.1-2.4 56.8-8.5 73.5-12.4 11.9-2.8 10.9-3.2 12.9 6.1zm-211.8 14.2c22.1-.1 40.7-.4 41.3-.8 3.1-1.9 0 2.7-10.7 16.1-10.9 13.7-29.4 35.4-36.3 42.7l-2.9 3.1-4.6-5c-11.7-12.8-31.7-36.7-41.4-49.4-1.4-1.8-3.1-3.9-3.8-4.7-2.3-2.5-.6-2.9 9-2.4 5.1.3 27.4.5 49.4.4z"/><path d="M489.8 406.5c-.1.1-1.9.5-3.9.8-9.5 1.2-23.5 7.4-33.3 14.7-10.3 7.6-21 21.8-25.7 34-8.6 22.7-6.1 49.7 6.4 69.5 4.1 6.5 4.2 6.7 10.7 13.4 11.1 11.6 24 18.7 41.1 22.7 1.3.3 7.2.7 13 .9 54.2 1.5 93.3-51.4 76.1-102.8-4.1-12-10.2-21.9-19.1-30.7-15.5-15.4-33.3-22.7-55.3-22.8-5.3 0-9.8.1-10 .3z"/></svg>